<svg xmlns="http://www.w3.org/2000/svg" viewBox="0 0 137.78 132.39"><defs><style>.cls-1{fill:#fff;stroke:#231815;stroke-miterlimit:10;stroke-width:7px;}</style></defs><g id="图层_2" data-name="图层 2"><g id="图层_1-2" data-name="图层 1"><path class="cls-1" d="M73.46,6.21,89.52,39.39A5,5,0,0,0,93.29,42l36.8,5.45c3.91.58,5.55,4.86,2.89,7.51L105.63,82.19a4.22,4.22,0,0,0-1.24,3.72l6.35,37.77c.63,3.77-3.86,6.52-7.48,4.57L71.44,111.19a5.4,5.4,0,0,0-5.09,0L34.52,128.25c-3.62,1.95-8.11-.8-7.48-4.57l6.35-37.77a4.22,4.22,0,0,0-1.24-3.72L4.81,55c-2.67-2.65-1-6.93,2.88-7.51L44.5,42a5,5,0,0,0,3.76-2.65L64.32,6.21A5.21,5.21,0,0,1,73.46,6.21Z"/></g></g></svg>