<svg xmlns="http://www.w3.org/2000/svg" viewBox="0 0 125.92 114.35"><defs><style>.cls-1,.cls-2{fill:#fff;stroke:#231815;stroke-miterlimit:10;}.cls-1{stroke-width:7px;}.cls-2{stroke-width:6px;}</style></defs><g id="图层_2" data-name="图层 2"><g id="图层_1-2" data-name="图层 1"><path class="cls-1" d="M90.79,3.5H35.13A3.7,3.7,0,0,0,31.9,5.39L4,55.37A3.68,3.68,0,0,0,4,59L31.9,109a3.7,3.7,0,0,0,3.23,1.89H90.79A3.69,3.69,0,0,0,94,109L122,59a3.68,3.68,0,0,0,0-3.61L94,5.39A3.69,3.69,0,0,0,90.79,3.5Z"/><path class="cls-2" d="M70.59,33.33H54.48A8.55,8.55,0,0,0,47,37.71L38.7,52.56a8.58,8.58,0,0,0,0,8.36L47,75.76a8.56,8.56,0,0,0,7.48,4.39H70.59a8.56,8.56,0,0,0,7.48-4.39l8.3-14.84a8.58,8.58,0,0,0,0-8.36l-8.3-14.85A8.55,8.55,0,0,0,70.59,33.33Z"/></g></g></svg>